<?xml version="1.0" encoding="UTF-8"?>
<svg id="objects" xmlns="http://www.w3.org/2000/svg" version="1.1" viewBox="0 0 536 120">
  <defs>
    <style>
      .cls-1 {
        letter-spacing: 0em;
      }

      .cls-1, .cls-2, .cls-3, .cls-4, .cls-5, .cls-6 {
        isolation: isolate;
      }

      .cls-1, .cls-2, .cls-3, .cls-4, .cls-6 {
        font-family: Bitter-Bold, Bitter;
        font-weight: 700;
      }

      .cls-1, .cls-2, .cls-4 {
        fill: #c62034;
        font-size: 65.7px;
      }

      .cls-7 {
        fill: #d82323;
      }

      .cls-7, .cls-8, .cls-9, .cls-10 {
        stroke-width: 0px;
      }

      .cls-7, .cls-9, .cls-11 {
        display: none;
      }

      .cls-8 {
        fill: #595959;
      }

      .cls-3, .cls-6 {
        fill: #213064;
        font-size: 34.8px;
      }

      .cls-12 {
        stroke: #fff;
        stroke-miterlimit: 10;
        stroke-width: 2.8px;
      }

      .cls-12, .cls-10 {
        fill: #202f5b;
      }

      .cls-9 {
        fill: #b50202;
      }

      .cls-4 {
        letter-spacing: 0em;
      }

      .cls-6 {
        letter-spacing: 0em;
      }
    </style>
  </defs>
  <circle class="cls-7" cx="24.7" cy="32.6" r="16.2"/>
  <circle class="cls-9" cx="56.5" cy="26.4" r="16.2"/>
  <polygon class="cls-7" points="13.5 44.3 40.9 68.2 40.9 53.5 27.2 39.9 13.5 44.3"/>
  <polyline class="cls-9" points="40.6 53.5 58 39.9 68.3 37.4 40.6 68.2"/>
  <g class="cls-11">
    <path class="cls-8" d="M133.4,21.5c2.9,1.5,5.1,3.6,6.8,6.2l-3.5,2.8c-3.1-4.6-7.4-6.9-12.9-6.9s-8.2,1.5-11.2,4.6-4.5,6.9-4.5,11.5,1.5,8.4,4.5,11.5,6.8,4.6,11.2,4.6,9.7-2.3,12.9-6.9l3.5,2.8c-1.6,2.6-3.9,4.7-6.8,6.2s-6.1,2.3-9.6,2.3c-5.7,0-10.6-2-14.6-5.9s-5.9-8.8-5.9-14.5,2-10.6,5.9-14.5,8.8-5.9,14.6-5.9,6.7.8,9.6,2.3Z"/>
    <path class="cls-8" d="M171.6,33.9c3,2.9,4.5,6.5,4.5,10.8s-1.5,7.8-4.5,10.8-6.6,4.4-10.9,4.4c-4.2,0-7.8-1.5-10.8-4.4s-4.4-6.5-4.4-10.8,1.5-7.9,4.4-10.8,6.6-4.4,10.8-4.4,7.8,1.5,10.8,4.4ZM153.2,36.9c-2,2.1-3,4.7-3,7.8,0,3.1,1,5.7,3,7.8,2,2.1,4.5,3.1,7.5,3.1s5.5-1,7.5-3.1c2-2.1,3.1-4.7,3.1-7.8s-1-5.8-3-7.9c-2-2.1-4.5-3.1-7.5-3.1-3,0-5.6,1-7.6,3.2Z"/>
    <path class="cls-8" d="M207.9,47.7c0,3.7-1.1,6.6-3.4,8.9s-5.1,3.4-8.6,3.4-6.4-1.1-8.6-3.4-3.4-5.2-3.4-8.9v-17.5h4.6v17.8c0,2.3.7,4.2,2.1,5.6,1.4,1.4,3.2,2.1,5.4,2.1s3.9-.7,5.3-2.1,2.1-3.3,2.1-5.6v-17.8h4.6v17.5h0Z"/>
    <path class="cls-8" d="M243.3,33.9c2.7,2.9,4.1,6.5,4.1,10.8s-1.4,8-4.1,10.9-6.2,4.4-10.3,4.4-4.2-.4-6.1-1.3-3.4-2.1-4.6-3.6v15h-4.6V30.2h4.3v4.7c1.1-1.7,2.6-3,4.6-3.9s4.1-1.4,6.4-1.4c4.2,0,7.6,1.5,10.3,4.4ZM239.7,52.6c2-2.1,3-4.7,3-7.8s-1-5.8-2.9-7.9c-1.9-2.1-4.4-3.1-7.4-3.1s-5.2.9-7.1,2.8c-2,1.8-3,4.6-3,8.2s1,6.3,3,8.2,4.4,2.8,7.1,2.8c3,0,5.4-1,7.4-3.1Z"/>
    <path class="cls-8" d="M260,59.3h-4.6V14.4h4.6v44.9Z"/>
    <path class="cls-8" d="M295.9,46.1h-23c.3,2.9,1.4,5.2,3.4,6.9,2,1.8,4.4,2.6,7.3,2.6s6.3-1.3,8.9-4l2.7,3.1c-3.2,3.4-7.1,5.1-11.7,5.1s-8-1.5-11-4.4-4.4-6.5-4.4-10.8,1.4-7.9,4.3-10.8,6.4-4.4,10.6-4.4,7,1.2,9.5,3.7c2.5,2.5,3.8,5.6,3.8,9.5,0,1.3-.1,2.4-.4,3.5ZM276.5,36c-1.8,1.5-2.9,3.6-3.4,6.1h18.4c0-2.6-.9-4.6-2.5-6.1-1.6-1.5-3.7-2.2-6.1-2.2s-4.5.8-6.3,2.3Z"/>
    <path class="cls-8" d="M322.8,34.1l-2.8,2.9c-2.1-2.2-4.5-3.2-7.2-3.2s-2.6.3-3.5,1-1.4,1.5-1.4,2.7.4,1.7,1.1,2.3,1.9,1.2,3.6,1.9l2.7,1.1c2.7,1.2,4.7,2.4,5.9,3.7s1.8,2.9,1.8,4.9-1,4.8-3,6.3-4.4,2.2-7.3,2.2c-4.8,0-8.5-1.9-11.4-5.7l2.9-3c2.8,3,5.6,4.5,8.4,4.5s2.9-.4,4-1.1,1.6-1.7,1.6-3-.4-2-1.2-2.7c-.8-.6-2.1-1.3-3.9-2l-2.8-1.2c-2.4-1-4.2-2.2-5.4-3.3-1.2-1.2-1.8-2.8-1.8-4.7s.9-4.5,2.8-6,4.2-2.1,7-2.1c4,0,7.3,1.5,9.8,4.6Z"/>
  </g>
  <g class="cls-11">
    <path class="cls-8" d="M377.8,59.3l-12.3-16.6h-8.4v16.6h-4.7V19.8h13.9c3.8,0,6.9,1.1,9.2,3.2s3.4,4.9,3.4,8.2-.7,5-2.2,6.9-3.5,3.3-6,4l12.6,17.1h-5.4ZM357.1,38.5h9c2.5,0,4.5-.7,5.9-2s2.1-3.1,2.1-5.3-.7-3.9-2.1-5.3c-1.4-1.4-3.4-2-5.9-2h-9v14.5h0Z"/>
    <path class="cls-8" d="M414.1,46.1h-23c.3,2.9,1.4,5.2,3.4,6.9,2,1.8,4.4,2.6,7.3,2.6s6.3-1.3,8.9-4l2.7,3.1c-3.2,3.4-7.1,5.1-11.7,5.1s-8-1.5-11-4.4-4.4-6.5-4.4-10.8,1.4-7.9,4.3-10.8,6.4-4.4,10.6-4.4,7,1.2,9.5,3.7c2.5,2.5,3.8,5.6,3.8,9.5,0,1.3-.1,2.4-.4,3.5ZM394.7,36c-1.8,1.5-2.9,3.6-3.4,6.1h18.4c0-2.6-.9-4.6-2.5-6.1-1.6-1.5-3.7-2.2-6.1-2.2s-4.5.8-6.3,2.3Z"/>
    <path class="cls-8" d="M441,34.1l-2.8,2.9c-2.1-2.2-4.5-3.2-7.2-3.2s-2.6.3-3.5,1-1.4,1.5-1.4,2.7.4,1.7,1.1,2.3,1.9,1.2,3.6,1.9l2.7,1.1c2.7,1.2,4.7,2.4,5.9,3.7s1.8,2.9,1.8,4.9-1,4.8-3,6.3-4.4,2.2-7.3,2.2c-4.8,0-8.5-1.9-11.4-5.7l2.9-3c2.8,3,5.6,4.5,8.4,4.5s2.9-.4,4-1.1,1.6-1.7,1.6-3-.4-2-1.2-2.7c-.8-.6-2.1-1.3-3.9-2l-2.8-1.2c-2.4-1-4.2-2.2-5.4-3.3-1.2-1.2-1.8-2.8-1.8-4.7s.9-4.5,2.8-6,4.2-2.1,7-2.1c4,0,7.3,1.5,9.8,4.6Z"/>
    <path class="cls-8" d="M473.6,33.9c3,2.9,4.5,6.5,4.5,10.8s-1.5,7.8-4.5,10.8-6.6,4.4-10.9,4.4c-4.2,0-7.8-1.5-10.8-4.4s-4.4-6.5-4.4-10.8,1.5-7.9,4.4-10.8c3-2.9,6.6-4.4,10.8-4.4s7.8,1.5,10.8,4.4ZM455.2,36.9c-2,2.1-3,4.7-3,7.8,0,3.1,1,5.7,3,7.8,2,2.1,4.5,3.1,7.5,3.1s5.5-1,7.5-3.1c2-2.1,3-4.7,3-7.8s-1-5.8-3-7.9c-2-2.1-4.5-3.1-7.5-3.1-3,0-5.6,1-7.6,3.2Z"/>
    <path class="cls-8" d="M501.6,30.2v4.1h-1.7c-2.5,0-4.7.8-6.5,2.3-1.8,1.5-2.7,3.6-2.7,6.3v16.5h-4.6v-29.1h4.3v4.2c2.2-3,5.2-4.4,9-4.4s1.3,0,2.1.2Z"/>
    <path class="cls-8" d="M523.7,55.4v3.9c-1.8.4-3.5.7-4.8.7-3,0-5.4-.8-7.2-2.3-1.8-1.6-2.6-3.9-2.6-7.1v-16.2h-4.9v-4.1h4.9v-8h4.6v8h9.1v4.1h-9.1v15.9c0,2.1.5,3.5,1.6,4.3s2.6,1.2,4.6,1.2,2.4-.1,3.9-.4Z"/>
  </g>
  <g id="uuid-86ad084a-fb02-4a9e-98f6-1f344145c0aa">
    <g class="cls-5">
      <text class="cls-1" transform="translate(2.9 77.7) scale(1 1)"><tspan x="0" y="0">B</tspan></text>
      <text class="cls-2" transform="translate(42.6 77.7) scale(1 1)"><tspan x="0" y="0">IL</tspan></text>
      <text class="cls-4" transform="translate(101.2 77.7) scale(1 1)"><tspan x="0" y="0">L</tspan></text>
      <text class="cls-2" transform="translate(131.1 77.7) scale(1 1)"><tspan x="0" y="0">Y</tspan></text>
    </g>
    <polygon class="cls-10" points="62.8 10.8 58.9 10.6 56.4 13.7 55.4 9.9 51.7 8.5 55.1 6.4 55.2 2.5 58.2 5 62 3.9 60.6 7.5 62.8 10.8"/>
    <polygon class="cls-10" points="40.5 21 33.9 20.6 29.9 25.7 28.3 19.4 22.1 17.1 27.6 13.6 27.9 7 32.9 11.2 39.2 9.4 36.8 15.5 40.5 21"/>
    <polygon class="cls-12" points="68.9 41.2 54.9 39.1 45 48.7 42.9 35.5 30.1 29.7 42.8 23.6 44.7 10.4 54.7 19.9 68.6 17.5 62.1 29.4 68.9 41.2"/>
  </g>
  <g id="uuid-d76200ac-ac7c-44a1-a544-31a521d8ca1b">
    <g class="cls-5">
      <text class="cls-6" transform="translate(95.5 114.8) scale(.9 1)"><tspan x="0" y="0">B</tspan></text>
      <text class="cls-3" transform="translate(114.4 114.8) scale(.9 1)"><tspan x="0" y="0">EER</tspan></text>
    </g>
  </g>
</svg>